<?xml version="1.0" encoding="UTF-8"?>
<svg xmlns="http://www.w3.org/2000/svg" viewBox="0 0 500 500">
  <defs>
    <style>
      .cls-1 {
        fill: #fff;
        stroke: #be1e2d;
        stroke-miterlimit: 10;
        stroke-width: 12px;
      }

      .cls-2 {
        fill: #fbb040;
      }
    </style>
  </defs>
  <g id="Layer_1" data-name="Layer 1">
    <rect class="cls-1" x="36.23" y="36.72" width="427.08" height="427.08" rx="46.2" ry="46.2"/>
  </g>
  <g id="Layer_2" data-name="Layer 2">
    <circle class="cls-2" cx="250.15" cy="250.65" r="132.6" transform="translate(-103.97 250.29) rotate(-45)"/>
  </g>
  <g id="Layer_3" data-name="Layer 3">
    <g>
      <path class="cls-2" d="M253.05,18.12c3.84,2.68,7.18,5.69,10.29,9.07,3.12,3.36,5.94,7.04,8.51,10.98,2.52,3.95,4.84,8.17,6.67,12.65,1.86,4.48,3.21,9.2,4.27,14.09,.23,1.22,.53,2.45,.84,3.7,.31,1.24,.59,2.51,.93,3.78l.5,1.93,.43,1.95c.27,1.3,.57,2.63,.73,3.95,.14,1.32,.26,2.65,.25,3.96,0,1.32-.18,2.61-.41,3.89-.44,2.57-1.54,4.99-2.83,7.29-.72,1.13-1.48,2.23-2.29,3.3-.42,.53-.82,1.06-1.26,1.57-.46,.5-.92,1-1.41,1.48-.96,.97-1.99,1.89-3.06,2.78-1.11,.86-2.28,1.66-3.52,2.41-4.96,2.96-10.84,5.03-18.59,5.04l-3.91-2.45c-.52-.9-.88-1.69-1.33-2.52l-1.09-2.29c-.75-1.51-1.26-2.84-1.9-4.19-1.2-2.65-2.01-4.95-2.9-7.15-1.53-4.29-2.66-7.84-3.07-10.96-.31-1.58-.21-3,.07-4.38,.15-.69,.46-1.34,.77-2.01,.3-.67,.73-1.32,1.17-1.98,.25-.33,.47-.66,.7-1l.72-1.02c.5-.69,1-1.39,1.42-2.12,.43-.73,.88-1.47,1.22-2.23,.33-.76,.64-1.53,.89-2.32,.94-3.14,1.64-6.42,2.31-9.88,.64-3.45,1.24-7.09,1.52-10.84,.65-7.5,.48-15.6-.44-23.89l3.83-2.58Z"/>
      <path class="cls-2" d="M255.82,482.4c-3.84-2.68-7.18-5.69-10.29-9.07-3.12-3.36-5.94-7.04-8.51-10.98-2.52-3.95-4.84-8.17-6.67-12.65-1.85-4.48-3.21-9.2-4.27-14.09-.23-1.22-.53-2.45-.84-3.7-.31-1.24-.59-2.51-.93-3.78l-.5-1.93-.43-1.95c-.27-1.3-.57-2.63-.73-3.95-.14-1.32-.26-2.65-.25-3.96,0-1.32,.18-2.61,.41-3.89,.44-2.57,1.54-4.99,2.83-7.29,.72-1.13,1.48-2.23,2.29-3.3,.42-.53,.82-1.06,1.26-1.57,.46-.5,.92-1,1.41-1.48,.96-.97,1.99-1.89,3.06-2.78,1.11-.86,2.28-1.66,3.52-2.41,4.96-2.96,10.84-5.03,18.59-5.04l3.91,2.45c.52,.9,.88,1.69,1.33,2.52l1.09,2.29c.75,1.51,1.26,2.84,1.9,4.19,1.2,2.65,2.01,4.95,2.9,7.15,1.53,4.29,2.66,7.84,3.07,10.96,.31,1.58,.21,3-.07,4.38-.15,.69-.46,1.34-.77,2.01-.3,.67-.73,1.32-1.17,1.98-.25,.33-.47,.66-.7,1l-.72,1.02c-.5,.69-1,1.39-1.42,2.12-.43,.73-.88,1.47-1.22,2.23-.33,.76-.64,1.53-.89,2.32-.94,3.14-1.64,6.42-2.31,9.88-.64,3.45-1.24,7.09-1.52,10.84-.65,7.5-.48,15.6,.44,23.89l-3.83,2.58Z"/>
      <path class="cls-2" d="M81.02,76.23c5.02-.89,9.91-1.15,14.9-.94,4.99,.18,9.99,.84,15,1.91,4.98,1.11,10.01,2.56,14.87,4.6,4.88,2.02,9.55,4.62,14.13,7.55,1.12,.76,2.29,1.49,3.49,2.2,1.2,.72,2.38,1.48,3.62,2.2l1.86,1.1,1.83,1.17c1.21,.8,2.46,1.58,3.6,2.48,1.12,.91,2.24,1.84,3.24,2.86,1.01,1.01,1.87,2.15,2.68,3.31,1.64,2.32,2.65,5.02,3.43,7.79,.32,1.42,.58,2.85,.78,4.3,.08,.73,.19,1.45,.24,2.18,.03,.74,.07,1.48,.05,2.23,.01,1.48-.08,2.99-.22,4.49-.2,1.52-.48,3.04-.85,4.56-1.54,6.1-4.47,12.22-10.43,18.19l-4.9,1.12c-1.09-.29-1.97-.62-2.96-.92l-2.6-.92c-1.74-.59-3.16-1.22-4.69-1.76-2.96-1.12-5.36-2.27-7.73-3.27-4.48-2.12-8.08-3.99-10.8-6.07-1.46-.98-2.47-2.15-3.32-3.43-.41-.65-.68-1.38-.96-2.14-.28-.74-.45-1.58-.62-2.43-.06-.45-.15-.87-.24-1.31l-.24-1.34c-.15-.91-.3-1.84-.54-2.72-.23-.89-.45-1.8-.78-2.65-.33-.84-.69-1.67-1.1-2.47-1.69-3.14-3.68-6.21-5.82-9.38-2.16-3.15-4.5-6.41-7.17-9.51-5.27-6.27-11.63-12.38-18.73-18.05l.96-4.94Z"/>
      <path class="cls-2" d="M421.38,411.54c-4.75,.84-9.38,1.09-14.11,.89-4.72-.17-9.46-.8-14.2-1.81-4.71-1.05-9.48-2.42-14.07-4.36-4.61-1.91-9.04-4.37-13.37-7.15-1.06-.72-2.17-1.41-3.31-2.08-1.13-.68-2.25-1.4-3.43-2.08l-1.76-1.04-1.73-1.1c-1.15-.75-2.33-1.5-3.41-2.35-1.06-.86-2.12-1.74-3.07-2.7-.96-.96-1.77-2.03-2.53-3.14-1.55-2.19-2.51-4.76-3.25-7.37-.3-1.34-.55-2.7-.73-4.07-.08-.69-.18-1.37-.23-2.07-.03-.7-.06-1.4-.05-2.11-.01-1.41,.07-2.83,.2-4.25,.19-1.44,.45-2.88,.81-4.32,1.46-5.77,4.23-11.57,9.87-17.22l4.64-1.06c1.03,.28,1.87,.59,2.8,.87l2.46,.87c1.65,.55,2.99,1.15,4.44,1.67,2.81,1.06,5.07,2.15,7.32,3.09,4.24,2.01,7.65,3.77,10.23,5.75,1.38,.93,2.34,2.04,3.14,3.25,.39,.61,.65,1.31,.9,2.02,.27,.7,.43,1.49,.59,2.3,.05,.42,.14,.83,.22,1.24l.22,1.27c.14,.86,.29,1.74,.51,2.58,.22,.84,.43,1.71,.74,2.51,.31,.79,.65,1.58,1.04,2.33,1.6,2.97,3.48,5.88,5.51,8.88,2.05,2.98,4.26,6.07,6.79,9,4.99,5.93,11.01,11.72,17.73,17.09l-.91,4.67Z"/>
      <path class="cls-2" d="M16.76,251.96c2.68-3.84,5.69-7.18,9.07-10.29,3.36-3.12,7.04-5.94,10.98-8.51,3.95-2.52,8.17-4.84,12.65-6.67,4.48-1.85,9.2-3.21,14.09-4.27,1.22-.23,2.45-.53,3.7-.84,1.24-.31,2.51-.59,3.78-.93l1.93-.5,1.95-.43c1.3-.27,2.63-.57,3.95-.73,1.32-.14,2.65-.26,3.96-.25,1.32,0,2.61,.18,3.89,.41,2.57,.44,4.99,1.54,7.29,2.83,1.13,.72,2.23,1.48,3.3,2.29,.53,.42,1.06,.82,1.57,1.26,.5,.46,1,.92,1.48,1.41,.97,.96,1.89,1.99,2.78,3.06,.86,1.11,1.66,2.28,2.41,3.52,2.96,4.96,5.03,10.84,5.04,18.59l-2.45,3.91c-.9,.52-1.69,.88-2.52,1.33l-2.29,1.09c-1.51,.75-2.84,1.26-4.19,1.9-2.65,1.2-4.95,2.01-7.15,2.9-4.29,1.53-7.84,2.66-10.96,3.07-1.58,.31-3,.21-4.38-.07-.69-.15-1.34-.46-2.01-.77-.67-.3-1.32-.73-1.98-1.17-.33-.25-.66-.47-1-.7l-1.02-.72c-.69-.5-1.39-1-2.12-1.42-.73-.43-1.47-.88-2.23-1.22-.76-.33-1.53-.64-2.32-.89-3.14-.94-6.42-1.64-9.88-2.31-3.45-.64-7.09-1.24-10.84-1.52-7.5-.65-15.6-.48-23.89,.44l-2.58-3.83Z"/>
      <path class="cls-2" d="M482.79,249.2c-2.68,3.84-5.69,7.18-9.07,10.29-3.36,3.12-7.04,5.94-10.98,8.51-3.95,2.52-8.17,4.84-12.65,6.67-4.48,1.85-9.2,3.21-14.09,4.27-1.22,.23-2.45,.53-3.7,.84-1.24,.31-2.51,.59-3.78,.93l-1.93,.5-1.95,.43c-1.3,.27-2.63,.57-3.95,.73-1.32,.14-2.65,.26-3.96,.25-1.32,0-2.61-.18-3.89-.41-2.57-.44-4.99-1.54-7.29-2.83-1.13-.72-2.23-1.48-3.3-2.29-.53-.42-1.06-.82-1.57-1.26-.5-.46-1-.92-1.48-1.41-.97-.96-1.89-1.99-2.78-3.06-.86-1.11-1.66-2.28-2.41-3.52-2.96-4.96-5.03-10.84-5.04-18.59l2.45-3.91c.9-.52,1.69-.88,2.52-1.33l2.29-1.09c1.51-.75,2.84-1.26,4.19-1.9,2.65-1.2,4.95-2.01,7.15-2.9,4.29-1.53,7.84-2.66,10.96-3.07,1.58-.31,3-.21,4.38,.07,.69,.15,1.34,.46,2.01,.77,.67,.3,1.32,.73,1.98,1.17,.33,.25,.66,.47,1,.7l1.02,.72c.69,.5,1.39,1,2.12,1.42,.73,.43,1.47,.88,2.23,1.22,.76,.33,1.53,.64,2.32,.89,3.14,.94,6.42,1.64,9.88,2.31,3.45,.64,7.09,1.24,10.84,1.52,7.5,.65,15.6,.48,23.89-.44l2.58,3.83Z"/>
      <path class="cls-2" d="M90.08,411.66c-.78-4.39-1.01-8.66-.82-13.03,.16-4.36,.74-8.73,1.67-13.11,.97-4.35,2.23-8.75,4.02-12.99,1.76-4.26,4.03-8.35,6.6-12.35,.67-.98,1.3-2,1.92-3.05,.63-1.05,1.29-2.08,1.92-3.17l.96-1.63,1.02-1.6c.69-1.06,1.38-2.15,2.17-3.14,.79-.98,1.6-1.96,2.5-2.83,.89-.89,1.88-1.64,2.89-2.34,2.02-1.43,4.39-2.32,6.81-3,1.24-.28,2.49-.51,3.76-.68,.64-.07,1.26-.16,1.91-.21,.65-.03,1.29-.06,1.95-.05,1.3-.01,2.61,.07,3.92,.19,1.33,.17,2.65,.42,3.99,.74,5.33,1.34,10.68,3.91,15.9,9.11l.98,4.28c-.26,.96-.55,1.72-.8,2.59l-.81,2.27c-.51,1.52-1.06,2.76-1.54,4.1-.98,2.59-1.98,4.68-2.85,6.76-1.86,3.92-3.48,7.06-5.31,9.44-.86,1.28-1.88,2.16-3,2.9-.56,.36-1.21,.6-1.87,.83-.65,.25-1.38,.4-2.12,.54-.39,.05-.76,.13-1.14,.21l-1.17,.21c-.8,.13-1.61,.26-2.38,.47-.78,.2-1.58,.4-2.32,.68-.73,.29-1.46,.6-2.15,.96-2.75,1.48-5.43,3.21-8.2,5.09-2.75,1.89-5.6,3.94-8.31,6.27-5.48,4.61-10.82,10.17-15.77,16.36l-4.31-.84Z"/>
      <path class="cls-2" d="M421.28,76.17c.89,5.02,1.15,9.9,.94,14.89-.18,4.99-.84,9.99-1.91,14.99-1.11,4.98-2.55,10-4.6,14.86-2.02,4.87-4.61,9.54-7.55,14.12-.76,1.12-1.48,2.29-2.2,3.49-.72,1.2-1.47,2.38-2.19,3.62l-1.1,1.86-1.17,1.83c-.79,1.21-1.58,2.46-2.48,3.59-.91,1.12-1.83,2.24-2.85,3.24-1.01,1.01-2.14,1.87-3.31,2.67-2.31,1.64-5.02,2.65-7.78,3.43-1.42,.32-2.85,.58-4.29,.78-.73,.08-1.44,.19-2.18,.24-.74,.03-1.48,.07-2.23,.05-1.48,.01-2.99-.08-4.49-.22-1.52-.2-3.03-.48-4.56-.85-6.09-1.54-12.21-4.47-18.17-10.42l-1.12-4.9c.29-1.09,.62-1.97,.92-2.96l.92-2.6c.59-1.74,1.22-3.16,1.76-4.69,1.12-2.96,2.26-5.35,3.26-7.73,2.12-4.48,3.98-8.07,6.07-10.79,.98-1.46,2.15-2.47,3.43-3.31,.65-.41,1.38-.68,2.13-.95,.74-.28,1.57-.45,2.43-.62,.45-.06,.87-.15,1.31-.24l1.34-.24c.91-.15,1.84-.3,2.72-.54,.89-.23,1.8-.45,2.65-.78,.84-.33,1.67-.69,2.46-1.1,3.14-1.69,6.2-3.67,9.37-5.82,3.14-2.16,6.4-4.5,9.5-7.17,6.26-5.27,12.37-11.62,18.03-18.71l4.93,.96Z"/>
    </g>
  </g>
</svg>